<svg width="108" height="110" viewBox="0 0 108 110" fill="none" xmlns="http://www.w3.org/2000/svg">
<path d="M53.8248 0C24.1673 0 0 24.5112 0 54.5905C0 84.6699 24.1673 109.181 53.8248 109.181C83.4823 109.181 107.65 84.6699 107.65 54.5905C107.65 24.5112 83.4823 0 53.8248 0ZM79.5531 42.0347L49.0344 72.9875C48.2808 73.7518 47.2582 74.1885 46.1817 74.1885C45.1052 74.1885 44.0825 73.7518 43.329 72.9875L28.0965 57.5384C26.5356 55.9553 26.5356 53.335 28.0965 51.7518C29.6575 50.1687 32.2411 50.1687 33.802 51.7518L46.1817 64.3077L73.8476 36.2481C75.4085 34.665 77.9921 34.665 79.5531 36.2481C81.114 37.8312 81.114 40.397 79.5531 42.0347Z" fill="#E9DED1"/>
</svg>
