<svg width="329" height="129" viewBox="0 0 329 129" fill="none" xmlns="http://www.w3.org/2000/svg">
<rect x="7.5" y="2.5" width="100" height="100" rx="2.5" stroke="#0B0602" stroke-width="5"/>
<path d="M75.2031 86.75V95H58.75V86.75H62.4531L68.875 65.9609H63.9766V57.7109H87.2031L95.5234 86.75H99.2031V95H78.2266V86.75H81.2734L80.2656 82.7656H71.8047L70.75 86.75H75.2031ZM79.1406 77.0938L76.4219 65.6797L73 77.0938H79.1406Z" fill="#0B0602"/>
<path d="M130.336 93.125V100H116.625V93.125H119.711L125.062 75.8008H120.98V68.9258H140.336L147.27 93.125H150.336V100H132.855V93.125H135.395L134.555 89.8047H127.504L126.625 93.125H130.336ZM133.617 85.0781L131.352 75.5664L128.5 85.0781H133.617ZM157.66 100.352C155.277 100.352 153.201 99.8958 151.43 98.9844C149.646 98.0859 148.259 96.8099 147.27 95.1562C146.28 93.5026 145.785 91.556 145.785 89.3164C145.785 87.2982 146.202 85.4818 147.035 83.8672C147.855 82.2526 149.027 80.9831 150.551 80.0586C152.087 79.1341 153.871 78.6719 155.902 78.6719C156.671 78.6719 157.484 78.7695 158.344 78.9648C159.203 79.1471 159.971 79.4206 160.648 79.7852C161.339 80.1497 161.794 80.6055 162.016 81.1523L162.816 79.082H167.074V87.7148H161.43C161.326 86.6732 161.02 85.8594 160.512 85.2734C160.004 84.6875 159.372 84.3945 158.617 84.3945C157.497 84.3945 156.645 84.7526 156.059 85.4688C155.473 86.1719 155.18 87.4674 155.18 89.3555C155.18 90.6576 155.414 91.6862 155.883 92.4414C156.365 93.1836 156.983 93.7174 157.738 94.043C158.507 94.3555 159.32 94.5117 160.18 94.5117C161.117 94.5117 162.133 94.349 163.227 94.0234C164.32 93.6849 165.29 93.1576 166.137 92.4414L166.43 92.6367V98.0859C166.43 98.138 166.033 98.3594 165.238 98.75C164.444 99.1536 163.389 99.5247 162.074 99.8633C160.759 100.189 159.288 100.352 157.66 100.352ZM172.68 100.352C171.352 100.352 170.147 100.091 169.066 99.5703C167.973 99.0625 167.1 98.3268 166.449 97.3633C165.798 96.3997 165.473 95.2799 165.473 94.0039C165.473 92.6237 165.857 91.4518 166.625 90.4883C167.393 89.5508 168.396 88.8477 169.633 88.3789C170.883 87.9102 172.23 87.6758 173.676 87.6758C175.382 87.6758 177.022 87.9297 178.598 88.4375V87.5586C178.598 86.5169 178.155 85.7227 177.27 85.1758C176.397 84.6289 175.212 84.3555 173.715 84.3555C173.077 84.3555 172.361 84.4336 171.566 84.5898C170.772 84.7461 169.997 84.9609 169.242 85.2344C168.487 85.5078 167.829 85.8138 167.27 86.1523L166.703 85.918V80.2344C168.279 79.6745 169.887 79.2773 171.527 79.043C173.168 78.7956 174.698 78.6719 176.117 78.6719C184.034 78.6719 187.992 80.8984 187.992 85.3516V94.1211H189.828V100H179.828L178.949 96.7969C178.389 97.8906 177.517 98.7565 176.332 99.3945C175.147 100.033 173.93 100.352 172.68 100.352ZM176.352 95.3516C176.781 95.3516 177.217 95.2799 177.66 95.1367C178.116 94.9935 178.428 94.8438 178.598 94.6875V91.4062C178.402 91.3802 178.09 91.3021 177.66 91.1719C177.217 91.0547 176.833 90.9961 176.508 90.9961C175.818 90.9961 175.264 91.2109 174.848 91.6406C174.444 92.0703 174.242 92.6432 174.242 93.3594C174.242 93.8932 174.431 94.362 174.809 94.7656C175.199 95.1562 175.714 95.3516 176.352 95.3516ZM196.703 100.352C194.815 100.352 193.181 99.8503 191.801 98.8477C190.434 97.8451 189.392 96.5039 188.676 94.8242C187.973 93.1315 187.621 91.2695 187.621 89.2383C187.621 87.4023 187.986 85.6641 188.715 84.0234C189.444 82.4089 190.473 81.1133 191.801 80.1367C193.142 79.1602 194.724 78.6719 196.547 78.6719C197.875 78.6719 199.014 78.8867 199.965 79.3164C200.915 79.7461 201.801 80.3841 202.621 81.2305V76.1133H199.496V70.8008L212.016 69.5117V94.1211H214.496V100H202.465V97.4805C201.827 98.3398 201.013 99.0299 200.023 99.5508C199.034 100.059 197.927 100.326 196.703 100.352ZM199.828 94.6484C200.44 94.6484 200.993 94.5052 201.488 94.2188C201.983 93.9193 202.361 93.5677 202.621 93.1641V85.7617C202.322 85.4102 201.918 85.0977 201.41 84.8242C200.915 84.5378 200.388 84.3945 199.828 84.3945C198.812 84.3945 197.986 84.8112 197.348 85.6445C196.71 86.4648 196.391 87.6628 196.391 89.2383C196.391 90.8398 196.684 92.1419 197.27 93.1445C197.855 94.1471 198.708 94.6484 199.828 94.6484ZM223.91 100.352C221.488 100.352 219.385 99.9023 217.602 99.0039C215.805 98.1185 214.424 96.849 213.461 95.1953C212.51 93.5417 212.035 91.6081 212.035 89.3945C212.035 87.207 212.504 85.306 213.441 83.6914C214.366 82.0898 215.674 80.8529 217.367 79.9805C219.06 79.1081 221.046 78.6719 223.324 78.6719C225.421 78.6719 227.27 79.082 228.871 79.9023C230.473 80.7357 231.71 81.9141 232.582 83.4375C233.467 84.9609 233.91 86.7383 233.91 88.7695C233.91 89.4727 233.806 90.1367 233.598 90.7617H221.43C221.43 91.9857 221.892 92.9688 222.816 93.7109C223.741 94.4401 224.854 94.8047 226.156 94.8047C227.146 94.8047 228.233 94.6354 229.418 94.2969C230.603 93.9453 231.794 93.4049 232.992 92.6758L233.324 92.793V98.0469C231.983 98.8151 230.603 99.3945 229.184 99.7852C227.777 100.163 226.02 100.352 223.91 100.352ZM221.43 86.7578V87.3242H226.43V86.9141C226.43 85.9896 226.215 85.1953 225.785 84.5312C225.368 83.8542 224.743 83.5156 223.91 83.5156C223.22 83.5156 222.634 83.8607 222.152 84.5508C221.671 85.2279 221.43 85.9635 221.43 86.7578ZM271.723 86.7188V94.3555H274.438V100H262.367V86.6797C262.367 86.1198 262.185 85.625 261.82 85.1953C261.456 84.7656 261.02 84.5508 260.512 84.5508C259.561 84.5508 258.962 85.026 258.715 85.9766C258.454 86.9531 258.324 88.3203 258.324 90.0781V100H248.949V86.6797C248.949 86.1198 248.767 85.625 248.402 85.1953C248.051 84.7656 247.621 84.5508 247.113 84.5508C246.163 84.5508 245.564 85.026 245.316 85.9766C245.056 86.9531 244.926 88.3203 244.926 90.0781V94.3555H244.965V100H232.758V94.3555H235.59V85.1172H232.758V79.8438L244.926 78.6719V81.6016C245.824 80.5339 246.846 79.7786 247.992 79.3359C249.138 78.8932 250.434 78.6719 251.879 78.6719C254.835 78.6719 256.768 79.9284 257.68 82.4414C258.643 81.0742 259.75 80.1042 261 79.5312C262.25 78.9583 263.676 78.6719 265.277 78.6719C269.574 78.6719 271.723 81.3542 271.723 86.7188ZM291.254 101.191V107.363H277.738V101.191H281.703L282.777 99.3945L273.656 85.1172H271.176V79.082H285.824V85.1172H283.891L287.133 91.1133L290.102 85.1172H287.973V79.082H298.891V85.1172H296.781L288.246 101.191H291.254Z" fill="#0B0602"/>
<path opacity="0.84" d="M125.016 67.2812C121.005 67.2812 119 65.1927 119 61.0156V54.8438H116.5V50.2656H119V46.6875L126.484 45.0156V50.2656H129.484V54.8438H126.484V60.4688C126.484 60.9375 126.661 61.3281 127.016 61.6406C127.37 61.9531 127.812 62.1094 128.344 62.1094C128.729 62.1094 129.109 62.0781 129.484 62.0156V66.3594C128.109 66.974 126.62 67.2812 125.016 67.2812ZM143.422 67H132.406V62.2969H134.391V47.8906H132.406V43.6406L141.906 42.6094V52.7031C142.312 51.9531 143.021 51.3073 144.031 50.7656C145.052 50.2135 146.182 49.9375 147.422 49.9375C149.234 49.9375 150.604 50.474 151.531 51.5469C152.458 52.6094 152.922 54.1042 152.922 56.0312V62.2969H154.906V67H145.391V56.7969C145.391 56.1719 145.208 55.6562 144.844 55.25C144.49 54.8438 144.078 54.6406 143.609 54.6406C143.078 54.6406 142.661 54.8229 142.359 55.1875C142.057 55.5521 141.906 56.0417 141.906 56.6562V62.2969H143.422V67ZM165.641 67.2812C163.703 67.2812 162.021 66.9219 160.594 66.2031C159.156 65.4948 158.052 64.4792 157.281 63.1562C156.521 61.8333 156.141 60.2865 156.141 58.5156C156.141 56.7656 156.516 55.2448 157.266 53.9531C158.005 52.6719 159.052 51.6823 160.406 50.9844C161.76 50.2865 163.349 49.9375 165.172 49.9375C166.849 49.9375 168.328 50.2656 169.609 50.9219C170.891 51.5885 171.88 52.5312 172.578 53.75C173.286 54.9688 173.641 56.3906 173.641 58.0156C173.641 58.5781 173.557 59.1094 173.391 59.6094H163.656C163.656 60.5885 164.026 61.375 164.766 61.9688C165.505 62.5521 166.396 62.8438 167.438 62.8438C168.229 62.8438 169.099 62.7083 170.047 62.4375C170.995 62.1562 171.948 61.724 172.906 61.1406L173.172 61.2344V65.4375C172.099 66.0521 170.995 66.5156 169.859 66.8281C168.734 67.1302 167.328 67.2812 165.641 67.2812ZM163.656 56.4062V56.8594H167.656V56.5312C167.656 55.7917 167.484 55.1562 167.141 54.625C166.807 54.0833 166.307 53.8125 165.641 53.8125C165.089 53.8125 164.62 54.0885 164.234 54.6406C163.849 55.1823 163.656 55.7708 163.656 56.4062Z" fill="#0B0602"/>
<line x1="23" y1="87.1007" x2="87.1008" y2="22.9999" stroke="#0B0602" stroke-width="5" stroke-linecap="round"/>
<path d="M40.325 21.2177C41.2036 32.0137 37.838 48.3749 25.3137 43.3314" stroke="#0B0602" stroke-width="2"/>
<path d="M24.8265 43.1512C30.7353 43.2597 34.0886 39.1592 33.0586 33.6039C32.8737 32.6068 33.4582 25.0357 40.3323 21.6448" stroke="#0B0602" stroke-width="2"/>
<path d="M25.3138 43.331C20.5347 41.2882 25.5911 28.8795 40.1851 21.4343" stroke="#0B0602" stroke-width="2"/>
<path d="M39.5158 21.2349L40.8076 20.4195L40.8497 21.4147L40.7 22.0262L39.4317 21.7517L39.514 21.3712" stroke="#0B0602" stroke-width="2"/>
<path d="M40.2344 21.2838C40.315 21.1632 40.4123 21.0552 40.4965 20.9371C40.5236 20.8991 40.5578 20.8639 40.5829 20.8249C40.5916 20.8115 40.5746 20.8429 40.5732 20.845C40.5434 20.89 40.5009 20.9291 40.4655 20.9697C40.4308 21.0094 40.3956 21.0497 40.3671 21.0942C40.3574 21.1093 40.3416 21.118 40.3353 21.135C40.335 21.1359 40.3393 21.1258 40.3395 21.1255C40.3499 21.1077 40.3645 21.0921 40.376 21.075C40.4082 21.0272 40.4366 20.9735 40.4595 20.9207C40.4719 20.892 40.482 20.8622 40.4929 20.8329C40.4962 20.8239 40.5017 20.8153 40.5101 20.81C40.5213 20.8031 40.5317 20.7964 40.5424 20.7886C40.5457 20.7861 40.5578 20.7804 40.559 20.7781C40.5616 20.7729 40.5892 20.759 40.5937 20.7575C40.6001 20.7554 40.6139 20.7353 40.6188 20.7292" stroke="white" stroke-width="2" stroke-linecap="round"/>
<path d="M40.616 20.7368C40.6145 20.8247 40.6446 20.9087 40.6592 20.9948C40.6643 21.0248 40.6452 21.0414 40.6457 21.069C40.6461 21.0931 40.6485 21.123 40.6399 21.1461" stroke="white" stroke-width="2" stroke-linecap="round"/>
<path d="M40.6311 21.147C40.5553 21.1633 40.48 21.1742 40.4031 21.1596C40.3732 21.154 40.3258 21.1556 40.2959 21.165C40.2681 21.1736 40.2358 21.1914 40.2156 21.2104" stroke="white" stroke-width="2" stroke-linecap="round"/>
<path d="M40.0936 21.1568C40.0532 21.1419 40.0094 21.1361 39.9698 21.1194C39.958 21.1145 39.9855 21.0843 39.9878 21.0807C39.9949 21.0696 39.9913 21.0607 40.0077 21.0625C40.0356 21.0656 40.0657 21.0456 40.0936 21.0442" stroke="white" stroke-width="2" stroke-linecap="round"/>
<path d="M40.1964 21.003C40.2634 20.9836 40.3376 20.9633 40.399 20.9282C40.4333 20.9085 40.4627 20.8818 40.4942 20.8581C40.5005 20.8533 40.5053 20.85 40.5098 20.8435" stroke="white" stroke-width="2" stroke-linecap="round"/>
<path d="M40.2218 20.9453C40.1933 20.9673 40.1661 20.9938 40.1379 21.0144" stroke="white" stroke-width="2" stroke-linecap="round"/>
<path d="M40.6118 20.8602C40.5664 20.8973 40.5181 20.9269 40.4684 20.9574C40.4137 20.9909 40.5634 20.8712 40.614 20.8318" stroke="#0B0602" stroke-width="2" stroke-linecap="round"/>
<path d="M40.7535 20.7372C40.6771 20.8345 40.5931 20.9279 40.5195 21.0273C40.5116 21.0381 40.5105 21.0472 40.5091 21.0599" stroke="#0B0602" stroke-width="2" stroke-linecap="round"/>
<path d="M40.3043 21.0718C40.3838 21.1362 40.4174 21.1998 40.3568 21.2882C40.3202 21.3418 40.2573 21.2884 40.2343 21.2517C40.2046 21.2045 40.1677 21.0985 40.231 21.0605C40.2372 21.0568 40.2573 21.0471 40.2652 21.0509C40.2674 21.052 40.2517 21.0899 40.2505 21.093C40.2358 21.1328 40.2108 21.1725 40.1806 21.2025C40.154 21.229 40.1228 21.2282 40.0874 21.2234C40.0085 21.2128 39.9268 21.2192 39.848 21.2279C39.8307 21.2298 39.8219 21.2425 39.8343 21.2235C39.8627 21.1801 39.8975 21.1403 39.9276 21.0976C39.9335 21.0893 39.9376 21.0779 39.9455 21.0718C39.9666 21.0556 39.9968 21.0497 40.0215 21.0392C40.0563 21.0243 40.0945 21.0051 40.1234 20.9797C40.1575 20.9499 40.1915 20.9205 40.2308 20.8987C40.2711 20.8762 40.3119 20.8453 40.3594 20.841C40.3787 20.8392 40.4015 20.8296 40.4208 20.8247C40.4382 20.8203 40.454 20.8025 40.4691 20.7925C40.5013 20.7713 40.5282 20.7457 40.5629 20.7275C40.5735 20.722 40.5997 20.6971 40.6113 20.7014C40.636 20.7105 40.6512 20.737 40.6699 20.7541C40.6873 20.77 40.6988 20.7813 40.6949 20.805C40.6872 20.8508 40.6788 20.9006 40.6817 20.9471C40.6851 21.0005 40.6925 21.0587 40.7108 21.1094C40.7194 21.1334 40.7214 21.1488 40.7186 21.1749C40.7144 21.2128 40.6744 21.2348 40.6486 21.2575C40.6351 21.2693 40.6216 21.28 40.6031 21.2815C40.5972 21.2819 40.5961 21.2881 40.5899 21.2858C40.5728 21.2795 40.5543 21.281 40.5379 21.275" stroke="#0B0602" stroke-width="2" stroke-linecap="round"/>
<path d="M37.1221 19.1057C33.3216 24.2443 25.4721 30.161 21.8575 22.936" stroke="#0B0602" stroke-width="2"/>
<path d="M21.7107 22.6622C24.2977 25.0636 27.3817 24.5803 29.0801 21.706C29.385 21.1901 32.5844 18.0646 36.9595 19.2982" stroke="#0B0602" stroke-width="2"/>
<path d="M21.8573 22.9359C20.5239 20.1265 27.5913 16.6363 36.9754 19.1461" stroke="#0B0602" stroke-width="2"/>
<path d="M36.7552 18.7913L37.6465 18.9441L37.2789 19.4023L36.9749 19.6139L36.5171 18.987L36.7014 18.851" stroke="#0B0602" stroke-width="2"/>
<path d="M37.056 19.0991C37.1387 19.0777 37.2239 19.0686 37.3072 19.0497C37.334 19.0437 37.363 19.0417 37.3893 19.0344C37.3983 19.0319 37.3785 19.039 37.3772 19.0394C37.3464 19.0475 37.3123 19.0479 37.2808 19.0518C37.2499 19.0556 37.2186 19.0595 37.1887 19.0678C37.1785 19.0707 37.1681 19.0683 37.1587 19.0733C37.1582 19.0736 37.1641 19.0708 37.1643 19.0708C37.1758 19.067 37.1884 19.0659 37.2001 19.0629C37.233 19.0545 37.2664 19.042 37.2972 19.0277C37.3138 19.0199 37.3299 19.0107 37.3461 19.002C37.3511 18.9994 37.3569 18.9977 37.3626 18.9988C37.3703 19.0002 37.3775 19.0013 37.3853 19.0021C37.3878 19.0024 37.3953 19.0046 37.3968 19.0041C37.4 19.0028 37.4177 19.0077 37.4202 19.0088C37.4239 19.0104 37.4378 19.007 37.4424 19.0062" stroke="white" stroke-width="2" stroke-linecap="round"/>
<path d="M37.4382 19.0083C37.4035 19.0467 37.3842 19.0959 37.3573 19.1399C37.348 19.1553 37.333 19.1551 37.3225 19.1675C37.3133 19.1783 37.3028 19.1925 37.29 19.1994" stroke="white" stroke-width="2" stroke-linecap="round"/>
<path d="M37.2857 19.1964C37.2456 19.1734 37.2079 19.1482 37.1793 19.1112C37.1682 19.0967 37.1465 19.0786 37.1295 19.0708C37.1138 19.0636 37.0925 19.0587 37.0762 19.059" stroke="white" stroke-width="2" stroke-linecap="round"/>
<path d="M37.0427 18.9868C37.0305 18.9641 37.0133 18.9441 37.0022 18.9209C36.9989 18.9141 37.0228 18.9116 37.0252 18.9109C37.0327 18.9089 37.0345 18.9035 37.0411 18.9108C37.0524 18.9232 37.0735 18.9264 37.0864 18.9368" stroke="white" stroke-width="2" stroke-linecap="round"/>
<path d="M37.1483 18.9595C37.1857 18.9776 37.2266 18.9981 37.2676 19.007C37.2905 19.012 37.3139 19.0118 37.3371 19.0138C37.3418 19.0142 37.3452 19.0147 37.3497 19.0136" stroke="white" stroke-width="2" stroke-linecap="round"/>
<path d="M37.1818 18.9439C37.1605 18.9424 37.1381 18.9433 37.1176 18.9411" stroke="white" stroke-width="2" stroke-linecap="round"/>
<path d="M37.3883 19.0613C37.3537 19.0596 37.3207 19.0535 37.2867 19.0472C37.2494 19.0403 37.3625 19.0469 37.4003 19.0495" stroke="#0B0602" stroke-width="2" stroke-linecap="round"/>
<path d="M37.499 19.0633C37.4272 19.076 37.3536 19.0839 37.2823 19.0988C37.2746 19.1004 37.2705 19.104 37.265 19.109" stroke="#0B0602" stroke-width="2" stroke-linecap="round"/>
<path d="M37.1693 19.0327C37.1796 19.0929 37.1699 19.1345 37.1086 19.1496C37.0715 19.1588 37.0643 19.1101 37.0683 19.0847C37.0734 19.0519 37.0982 18.9902 37.1411 18.9985C37.1453 18.9993 37.1579 19.003 37.16 19.0079C37.1606 19.0092 37.1388 19.0198 37.1372 19.0207C37.1152 19.0325 37.0886 19.0402 37.0635 19.0414C37.0414 19.0426 37.0278 19.0298 37.0139 19.0136C36.983 18.9774 36.9441 18.9477 36.9057 18.9202C36.8972 18.9142 36.8883 18.9163 36.9013 18.9128C36.9307 18.9049 36.9617 18.9011 36.9917 18.8942C36.9975 18.8928 37.0038 18.8894 37.0096 18.8898C37.0253 18.891 37.0411 18.9005 37.0561 18.9056C37.0774 18.9129 37.1018 18.9196 37.1246 18.9199C37.1513 18.9202 37.1778 18.9207 37.2038 18.9267C37.2304 18.9327 37.2606 18.9353 37.2834 18.9523C37.2927 18.9592 37.3065 18.964 37.3171 18.9695C37.3265 18.9745 37.3405 18.9729 37.3511 18.9745C37.3736 18.9779 37.3955 18.9772 37.418 18.983C37.4249 18.9848 37.4462 18.9842 37.4497 18.9907C37.4572 19.0046 37.4536 19.0224 37.4553 19.0374C37.4569 19.0514 37.4576 19.061 37.4466 19.0699C37.4255 19.0872 37.4024 19.1059 37.3856 19.1277C37.3664 19.1528 37.3471 19.1815 37.3355 19.2113C37.3301 19.2254 37.325 19.233 37.3136 19.2434C37.297 19.2586 37.2707 19.2524 37.2504 19.2522C37.2398 19.2521 37.2297 19.2514 37.2209 19.2447C37.218 19.2426 37.2152 19.2449 37.2133 19.2414C37.2081 19.2318 37.1993 19.2251 37.1944 19.2159" stroke="#0B0602" stroke-width="2" stroke-linecap="round"/>
<path d="M19.8368 28.0212C21.8164 34.0982 22.08 43.9244 14.0983 42.6755" stroke="#0B0602" stroke-width="2"/>
<path d="M13.7902 42.636C17.2471 41.9226 18.6431 39.1305 17.2878 36.0793C17.0446 35.5317 16.3558 31.1124 19.8993 28.2651" stroke="#0B0602" stroke-width="2"/>
<path d="M14.0984 42.6755C11.0367 42.131 12.2953 34.35 19.7848 28.1639" stroke="#0B0602" stroke-width="2"/>
<path d="M19.3677 28.1375L20.0094 27.5002L20.1693 28.0655L20.1652 28.4359L19.389 28.4449L19.3852 28.2159" stroke="#0B0602" stroke-width="2"/>
<path d="M19.7932 28.0712C19.8237 27.9915 19.8657 27.9167 19.8987 27.838C19.9093 27.8126 19.9245 27.7879 19.9338 27.7623C19.937 27.7535 19.9314 27.7737 19.9309 27.775C19.9196 27.8048 19.9002 27.8328 19.8851 27.8607C19.8703 27.8881 19.8552 27.9158 19.8447 27.945C19.8411 27.955 19.8331 27.9621 19.8317 27.9726C19.8316 27.9732 19.8328 27.9668 19.8329 27.9666C19.8365 27.9551 19.8429 27.9442 19.8473 27.9329C19.8595 27.9012 19.8687 27.8667 19.8749 27.8334C19.8783 27.8153 19.8801 27.7969 19.8824 27.7787C19.8831 27.7731 19.8852 27.7674 19.8894 27.7633C19.8949 27.7578 19.9001 27.7526 19.9052 27.7468C19.9069 27.7449 19.9131 27.7401 19.9135 27.7385C19.9143 27.7352 19.9285 27.7236 19.9309 27.7222C19.9344 27.7201 19.9396 27.7068 19.9417 27.7027" stroke="white" stroke-width="2" stroke-linecap="round"/>
<path d="M19.9409 27.707C19.952 27.7576 19.9809 27.8019 20.0012 27.8493C20.0082 27.8658 19.9994 27.8779 20.0034 27.8937C20.0069 27.9074 20.0123 27.9242 20.0105 27.9387" stroke="white" stroke-width="2" stroke-linecap="round"/>
<path d="M20.0057 27.9404C19.9637 27.9597 19.9213 27.9759 19.8745 27.9776C19.8563 27.9783 19.829 27.9854 19.8128 27.9947C19.7978 28.0034 19.7814 28.0178 19.7722 28.0313" stroke="white" stroke-width="2" stroke-linecap="round"/>
<path d="M19.6939 28.0166C19.6682 28.0134 19.642 28.0158 19.6166 28.0114C19.6091 28.0101 19.621 27.9892 19.6219 27.9868C19.6245 27.9796 19.6212 27.9749 19.631 27.9738C19.6476 27.9719 19.6625 27.9565 19.6785 27.952" stroke="white" stroke-width="2" stroke-linecap="round"/>
<path d="M19.733 27.9149C19.7694 27.895 19.8098 27.8735 19.8408 27.8453C19.8582 27.8296 19.8717 27.8104 19.8868 27.7927C19.8898 27.7891 19.8922 27.7865 19.8939 27.7822" stroke="white" stroke-width="2" stroke-linecap="round"/>
<path d="M19.7398 27.8787C19.7262 27.8951 19.714 27.9138 19.7003 27.9293" stroke="white" stroke-width="2" stroke-linecap="round"/>
<path d="M19.9554 27.7787C19.9339 27.8059 19.9099 27.8293 19.885 27.8533C19.8578 27.8796 19.9287 27.7914 19.9528 27.7621" stroke="#0B0602" stroke-width="2" stroke-linecap="round"/>
<path d="M20.0212 27.6893C19.9899 27.7552 19.9537 27.8198 19.9243 27.8865C19.9212 27.8937 19.9218 27.899 19.9227 27.9065" stroke="#0B0602" stroke-width="2" stroke-linecap="round"/>
<path d="M19.8051 27.9404C19.8602 27.9669 19.8884 27.9989 19.8651 28.0576C19.8511 28.0932 19.8072 28.0708 19.7888 28.0528C19.7651 28.0296 19.7292 27.9736 19.7609 27.9435C19.764 27.9406 19.7744 27.9324 19.7795 27.9335C19.7809 27.9338 19.7769 27.9577 19.7767 27.9596C19.7735 27.9843 19.7644 28.0104 19.7508 28.0316C19.7389 28.0503 19.7206 28.0539 19.6994 28.0558C19.652 28.0601 19.6052 28.0745 19.5605 28.0898C19.5507 28.0932 19.5473 28.1016 19.5519 28.0891C19.5626 28.0605 19.5774 28.0331 19.5892 28.0047C19.5915 27.9991 19.5923 27.992 19.5961 27.9875C19.6062 27.9754 19.623 27.9681 19.6359 27.9588C19.6542 27.9457 19.6738 27.9297 19.6872 27.9113C19.703 27.8897 19.7189 27.8684 19.7388 27.8507C19.7592 27.8326 19.7788 27.8095 19.8059 27.8008C19.8169 27.7972 19.8288 27.7887 19.8394 27.7834C19.8489 27.7786 19.8557 27.7663 19.8632 27.7586C19.879 27.7422 19.8912 27.7239 19.909 27.709C19.9144 27.7044 19.9263 27.6867 19.9336 27.6876C19.9492 27.6896 19.9617 27.7028 19.9749 27.7102C19.9872 27.717 19.9955 27.722 19.9964 27.7361C19.9981 27.7634 20 27.793 20.008 27.8193C20.0173 27.8495 20.0295 27.8819 20.047 27.9086C20.0553 27.9213 20.0586 27.9298 20.0604 27.9451C20.0632 27.9674 20.0429 27.9853 20.0309 28.0017C20.0247 28.0103 20.0183 28.0181 20.0077 28.0214C20.0043 28.0225 20.0045 28.0262 20.0006 28.0257C19.9898 28.0243 19.9792 28.0276 19.9688 28.0263" stroke="#0B0602" stroke-width="2" stroke-linecap="round"/>
<path d="M43.0538 45.453C40.1149 49.5357 33.9997 54.3091 31.0884 48.7554" stroke="#0B0602" stroke-width="2"/>
<path d="M30.9703 48.5452C33.0275 50.3621 35.4477 49.9213 36.7556 47.6465C36.9903 47.2382 39.476 44.7365 42.9279 45.6064" stroke="#0B0602" stroke-width="2"/>
<path d="M31.0883 48.7557C30.013 46.5947 35.5364 43.7281 42.9388 45.4879" stroke="#0B0602" stroke-width="2"/>
<path d="M39.6044 20.9825L40.8962 20.1671L40.9383 21.1623L40.7886 21.7738L39.5203 21.4993L39.6027 21.1188" stroke="#0B0602" stroke-width="2"/>
<path d="M40.3228 21.0314C40.4034 20.9108 40.5007 20.8028 40.5849 20.6847C40.612 20.6467 40.6462 20.6114 40.6713 20.5725C40.6799 20.5591 40.6629 20.5905 40.6616 20.5925C40.6318 20.6376 40.5893 20.6766 40.5538 20.7172C40.5192 20.757 40.484 20.7973 40.4555 20.8417C40.4458 20.8569 40.43 20.8656 40.4237 20.8826C40.4233 20.8835 40.4277 20.8733 40.4279 20.873C40.4383 20.8553 40.4529 20.8396 40.4644 20.8225C40.4965 20.7748 40.5249 20.7211 40.5479 20.6682C40.5603 20.6395 40.5704 20.6098 40.5812 20.5804C40.5846 20.5714 40.5901 20.5628 40.5985 20.5576C40.6097 20.5506 40.62 20.5439 40.6307 20.5362C40.6341 20.5337 40.6462 20.528 40.6474 20.5256C40.65 20.5204 40.6776 20.5066 40.6821 20.5051C40.6885 20.5029 40.7022 20.4829 40.7071 20.4768" stroke="white" stroke-width="2" stroke-linecap="round"/>
<path d="M40.7046 20.4844C40.7031 20.5723 40.7332 20.6563 40.7479 20.7423C40.753 20.7723 40.7338 20.789 40.7343 20.8166C40.7347 20.8407 40.7371 20.8705 40.7285 20.8937" stroke="white" stroke-width="2" stroke-linecap="round"/>
<path d="M40.7198 20.8946C40.6439 20.9108 40.5686 20.9217 40.4917 20.9072C40.4618 20.9015 40.4145 20.9032 40.3845 20.9125C40.3567 20.9212 40.3245 20.939 40.3042 20.9579" stroke="white" stroke-width="2" stroke-linecap="round"/>
<path d="M40.1823 20.9044C40.1418 20.8894 40.0981 20.8836 40.0584 20.867C40.0467 20.862 40.0741 20.8319 40.0765 20.8282C40.0836 20.8172 40.0799 20.8083 40.0964 20.8101C40.1242 20.8131 40.1543 20.7932 40.1822 20.7917" stroke="white" stroke-width="2" stroke-linecap="round"/>
<path d="M40.285 20.7505C40.352 20.7312 40.4262 20.7108 40.4876 20.6757C40.522 20.6561 40.5513 20.6294 40.5828 20.6057C40.5892 20.6009 40.594 20.5975 40.5984 20.591" stroke="white" stroke-width="2" stroke-linecap="round"/>
<path d="M40.3102 20.6933C40.2817 20.7154 40.2545 20.7419 40.2262 20.7624" stroke="white" stroke-width="2" stroke-linecap="round"/>
<path d="M40.7005 20.6078C40.655 20.6449 40.6068 20.6745 40.557 20.705C40.5024 20.7384 40.652 20.6188 40.7026 20.5794" stroke="#0B0602" stroke-width="2" stroke-linecap="round"/>
<path d="M40.8419 20.4848C40.7655 20.5821 40.6814 20.6754 40.6079 20.7749C40.6 20.7856 40.5989 20.7948 40.5975 20.8074" stroke="#0B0602" stroke-width="2" stroke-linecap="round"/>
<path d="M40.3929 20.8194C40.4724 20.8838 40.506 20.9473 40.4455 21.0358C40.4088 21.0894 40.346 21.0359 40.3229 20.9993C40.2932 20.9521 40.2563 20.846 40.3197 20.8081C40.3259 20.8043 40.3459 20.7947 40.3538 20.7984C40.3561 20.7995 40.3403 20.8375 40.3392 20.8405C40.3245 20.8803 40.2995 20.9201 40.2693 20.95C40.2426 20.9765 40.2114 20.9758 40.176 20.971C40.0971 20.9603 40.0154 20.9668 39.9366 20.9754C39.9193 20.9773 39.9105 20.9901 39.9229 20.9711C39.9513 20.9276 39.9861 20.8879 40.0162 20.8452C40.0221 20.8369 40.0262 20.8254 40.0341 20.8194C40.0552 20.8032 40.0855 20.7973 40.1102 20.7867C40.1449 20.7719 40.1831 20.7527 40.2121 20.7273C40.2461 20.6974 40.2802 20.6681 40.3194 20.6462C40.3597 20.6238 40.4005 20.5928 40.4481 20.5885C40.4674 20.5868 40.4901 20.5772 40.5095 20.5723C40.5268 20.5679 40.5427 20.55 40.5577 20.5401C40.59 20.5188 40.6168 20.4932 40.6515 20.4751C40.6621 20.4696 40.6883 20.4447 40.6999 20.4489C40.7246 20.4581 40.7399 20.4846 40.7585 20.5016C40.7759 20.5176 40.7874 20.5289 40.7835 20.5526C40.7758 20.5984 40.7674 20.6481 40.7704 20.6947C40.7737 20.7481 40.7811 20.8063 40.7994 20.857C40.8081 20.881 40.81 20.8964 40.8072 20.9224C40.803 20.9603 40.763 20.9824 40.7372 21.005C40.7238 21.0169 40.7102 21.0275 40.6918 21.029C40.6858 21.0295 40.6848 21.0357 40.6786 21.0334C40.6614 21.0271 40.643 21.0286 40.6265 21.0225" stroke="#0B0602" stroke-width="2" stroke-linecap="round"/>
<path d="M39.6044 20.9825L40.8962 20.1671L40.9383 21.1623L40.7886 21.7738L39.5203 21.4993L39.6027 21.1188" stroke="#0B0602" stroke-width="2"/>
<path d="M40.3228 21.0314C40.4034 20.9108 40.5007 20.8028 40.5849 20.6847C40.612 20.6467 40.6462 20.6114 40.6713 20.5725C40.6799 20.5591 40.6629 20.5905 40.6616 20.5925C40.6318 20.6376 40.5893 20.6766 40.5538 20.7172C40.5192 20.757 40.484 20.7973 40.4555 20.8417C40.4458 20.8569 40.43 20.8656 40.4237 20.8826C40.4233 20.8835 40.4277 20.8733 40.4279 20.873C40.4383 20.8553 40.4529 20.8396 40.4644 20.8225C40.4965 20.7748 40.5249 20.7211 40.5479 20.6682C40.5603 20.6395 40.5704 20.6098 40.5812 20.5804C40.5846 20.5714 40.5901 20.5628 40.5985 20.5576C40.6097 20.5506 40.62 20.5439 40.6307 20.5362C40.6341 20.5337 40.6462 20.528 40.6474 20.5256C40.65 20.5204 40.6776 20.5066 40.6821 20.5051C40.6885 20.5029 40.7022 20.4829 40.7071 20.4768" stroke="white" stroke-width="2" stroke-linecap="round"/>
<path d="M40.7046 20.4844C40.7031 20.5723 40.7332 20.6563 40.7479 20.7423C40.753 20.7723 40.7338 20.789 40.7343 20.8166C40.7347 20.8407 40.7371 20.8705 40.7285 20.8937" stroke="white" stroke-width="2" stroke-linecap="round"/>
<path d="M40.7198 20.8946C40.6439 20.9108 40.5686 20.9217 40.4917 20.9072C40.4618 20.9015 40.4145 20.9032 40.3845 20.9125C40.3567 20.9212 40.3245 20.939 40.3042 20.9579" stroke="white" stroke-width="2" stroke-linecap="round"/>
<path d="M40.1823 20.9044C40.1418 20.8894 40.0981 20.8836 40.0584 20.867C40.0467 20.862 40.0741 20.8319 40.0765 20.8282C40.0836 20.8172 40.0799 20.8083 40.0964 20.8101C40.1242 20.8131 40.1543 20.7932 40.1822 20.7917" stroke="white" stroke-width="2" stroke-linecap="round"/>
<path d="M40.285 20.7505C40.352 20.7312 40.4262 20.7108 40.4876 20.6757C40.522 20.6561 40.5513 20.6294 40.5828 20.6057C40.5892 20.6009 40.594 20.5975 40.5984 20.591" stroke="white" stroke-width="2" stroke-linecap="round"/>
<path d="M40.3102 20.6933C40.2817 20.7154 40.2545 20.7419 40.2262 20.7624" stroke="white" stroke-width="2" stroke-linecap="round"/>
<path d="M40.7005 20.6078C40.655 20.6449 40.6068 20.6745 40.557 20.705C40.5024 20.7384 40.652 20.6188 40.7026 20.5794" stroke="#0B0602" stroke-width="2" stroke-linecap="round"/>
<path d="M40.8419 20.4848C40.7655 20.5821 40.6814 20.6754 40.6079 20.7749C40.6 20.7856 40.5989 20.7948 40.5975 20.8074" stroke="#0B0602" stroke-width="2" stroke-linecap="round"/>
<path d="M40.3929 20.8194C40.4724 20.8838 40.506 20.9473 40.4455 21.0358C40.4088 21.0894 40.346 21.0359 40.3229 20.9993C40.2932 20.9521 40.2563 20.846 40.3197 20.8081C40.3259 20.8043 40.3459 20.7947 40.3538 20.7984C40.3561 20.7995 40.3403 20.8375 40.3392 20.8405C40.3245 20.8803 40.2995 20.9201 40.2693 20.95C40.2426 20.9765 40.2114 20.9758 40.176 20.971C40.0971 20.9603 40.0154 20.9668 39.9366 20.9754C39.9193 20.9773 39.9105 20.9901 39.9229 20.9711C39.9513 20.9276 39.9861 20.8879 40.0162 20.8452C40.0221 20.8369 40.0262 20.8254 40.0341 20.8194C40.0552 20.8032 40.0855 20.7973 40.1102 20.7867C40.1449 20.7719 40.1831 20.7527 40.2121 20.7273C40.2461 20.6974 40.2802 20.6681 40.3194 20.6462C40.3597 20.6238 40.4005 20.5928 40.4481 20.5885C40.4674 20.5868 40.4901 20.5772 40.5095 20.5723C40.5268 20.5679 40.5427 20.55 40.5577 20.5401C40.59 20.5188 40.6168 20.4932 40.6515 20.4751C40.6621 20.4696 40.6883 20.4447 40.6999 20.4489C40.7246 20.4581 40.7399 20.4846 40.7585 20.5016C40.7759 20.5176 40.7874 20.5289 40.7835 20.5526C40.7758 20.5984 40.7674 20.6481 40.7704 20.6947C40.7737 20.7481 40.7811 20.8063 40.7994 20.857C40.8081 20.881 40.81 20.8964 40.8072 20.9224C40.803 20.9603 40.763 20.9824 40.7372 21.005C40.7238 21.0169 40.7102 21.0275 40.6918 21.029C40.6858 21.0295 40.6848 21.0357 40.6786 21.0334C40.6614 21.0271 40.643 21.0286 40.6265 21.0225" stroke="#0B0602" stroke-width="2" stroke-linecap="round"/>
<path d="M45.399 21.527C51.9595 28.4903 58.7248 41.6405 47.4665 45.0865" stroke="#0B0602" stroke-width="2"/>
<path d="M47.0376 45.2315C51.0941 42.0387 51.0961 37.355 47.3294 34.0916C46.6533 33.5058 42.8646 27.9587 45.6402 21.8176" stroke="#0B0602" stroke-width="2"/>
<path d="M47.4664 45.0863C43.105 46.3196 39.6676 34.9615 45.4241 21.7539" stroke="#0B0602" stroke-width="2"/>
<path d="M44.8614 21.986L45.2846 20.7091L45.863 21.3725L46.0997 21.8772L45.0901 22.3892L44.9356 22.0811" stroke="#0B0602" stroke-width="2"/>
<path d="M45.3742 21.6224C45.3621 21.4946 45.3682 21.3663 45.3599 21.2382C45.3572 21.197 45.3609 21.1538 45.3563 21.113C45.3548 21.099 45.3606 21.1301 45.3608 21.1322C45.3656 21.1798 45.3584 21.2302 45.3569 21.2779C45.3554 21.3244 45.3539 21.3717 45.3592 21.4182C45.3609 21.434 45.3551 21.4487 45.3602 21.4639C45.3605 21.4647 45.3579 21.4553 45.3578 21.455C45.355 21.437 45.3563 21.4181 45.3546 21.4C45.3499 21.3492 45.3394 21.2965 45.3258 21.2474C45.3183 21.2207 45.3087 21.1946 45.2998 21.1683C45.2971 21.1603 45.2961 21.1513 45.2989 21.143C45.3026 21.1321 45.3059 21.1217 45.3088 21.1104C45.3098 21.1068 45.3148 21.0963 45.3143 21.0939C45.3132 21.0889 45.3242 21.0641 45.3264 21.0606C45.3295 21.0556 45.3278 21.0341 45.3277 21.0272" stroke="white" stroke-width="2" stroke-linecap="round"/>
<path d="M45.3298 21.0342C45.3774 21.0956 45.4442 21.137 45.5016 21.1882C45.5217 21.2061 45.5179 21.2282 45.5335 21.247C45.5471 21.2634 45.5652 21.2826 45.5722 21.3034" stroke="white" stroke-width="2" stroke-linecap="round"/>
<path d="M45.567 21.3088C45.5247 21.362 45.4798 21.4111 45.4197 21.4436C45.3963 21.4562 45.3652 21.4836 45.3502 21.5066C45.3362 21.5279 45.3242 21.558 45.3209 21.5823" stroke="white" stroke-width="2" stroke-linecap="round"/>
<path d="M45.2089 21.6126C45.1733 21.6247 45.1405 21.6449 45.1045 21.6553C45.0938 21.6584 45.0957 21.6224 45.0953 21.6186C45.094 21.6071 45.0866 21.6029 45.0987 21.5951C45.1192 21.5818 45.1286 21.5513 45.1466 21.535" stroke="white" stroke-width="2" stroke-linecap="round"/>
<path d="M45.1934 21.4496C45.2281 21.3992 45.267 21.3441 45.2891 21.2859C45.3015 21.2533 45.3066 21.2186 45.3148 21.1849C45.3165 21.1781 45.3179 21.1731 45.3173 21.1662" stroke="white" stroke-width="2" stroke-linecap="round"/>
<path d="M45.1788 21.3963C45.1717 21.4273 45.168 21.4606 45.1602 21.4904" stroke="white" stroke-width="2" stroke-linecap="round"/>
<path d="M45.3956 21.1216C45.3853 21.1723 45.3691 21.2194 45.3523 21.268C45.3338 21.3213 45.3689 21.1559 45.3814 21.1008" stroke="#0B0602" stroke-width="2" stroke-linecap="round"/>
<path d="M45.4233 20.9584C45.4254 21.0678 45.4202 21.1787 45.4254 21.288C45.426 21.2998 45.4303 21.3067 45.4363 21.3162" stroke="#0B0602" stroke-width="2" stroke-linecap="round"/>
<path d="M45.3046 21.4377C45.3939 21.4381 45.4518 21.4634 45.4597 21.5579C45.4645 21.6152 45.3925 21.6131 45.3567 21.6005C45.3105 21.5844 45.2269 21.5316 45.2488 21.4704C45.2509 21.4644 45.2591 21.4466 45.2666 21.4448C45.2687 21.4443 45.279 21.4793 45.2799 21.482C45.292 21.5176 45.297 21.5588 45.2932 21.5962C45.2898 21.6292 45.2682 21.6459 45.2417 21.6622C45.1824 21.6985 45.1307 21.7481 45.0822 21.7977C45.0715 21.8086 45.0726 21.8222 45.0705 21.8022C45.0657 21.7566 45.0673 21.7099 45.0641 21.6638C45.0635 21.6548 45.0599 21.6446 45.0619 21.6361C45.0672 21.6132 45.0844 21.5924 45.0953 21.5715C45.1106 21.542 45.1258 21.5077 45.1314 21.4741C45.1379 21.4347 45.1447 21.3956 45.1592 21.3588C45.174 21.3211 45.1845 21.2771 45.2143 21.2479C45.2264 21.236 45.2365 21.2168 45.2469 21.2027C45.2562 21.1901 45.257 21.169 45.2617 21.1538C45.2718 21.1213 45.2758 21.0888 45.2892 21.0571C45.2933 21.0474 45.2973 21.0157 45.3075 21.0123C45.3293 21.0049 45.3542 21.0148 45.3763 21.0163C45.3969 21.0176 45.4109 21.0191 45.4213 21.0376C45.4414 21.0734 45.4633 21.1124 45.491 21.1429C45.5228 21.1779 45.5599 21.214 45.6003 21.2388C45.6194 21.2506 45.6293 21.2601 45.6417 21.2797C45.6599 21.3081 45.645 21.3455 45.6401 21.3753C45.6375 21.391 45.6342 21.4058 45.6226 21.417C45.6188 21.4207 45.6215 21.4255 45.6161 21.4274C45.601 21.4325 45.5893 21.4437 45.5748 21.4486" stroke="#0B0602" stroke-width="2" stroke-linecap="round"/>
<line x1="2.18557e-07" y1="112.5" x2="301" y2="112.5" stroke="#0B0602" stroke-width="5"/>
</svg>
